<?xml version="1.0" standalone="no"?>
<!DOCTYPE svg PUBLIC "-//W3C//DTD SVG 20010904//EN"
 "http://www.w3.org/TR/2001/REC-SVG-20010904/DTD/svg10.dtd">
<svg version="1.0" xmlns="http://www.w3.org/2000/svg"
 width="500.000000pt" height="500.000000pt" viewBox="0 0 500.000000 500.000000"
 preserveAspectRatio="xMidYMid meet">
<metadata>
Created by potrace 1.11, written by Peter Selinger 2001-2013
</metadata>
<g transform="translate(0.000000,500.000000) scale(0.100000,-0.100000)"
fill="#000000" stroke="none">
<path d="M2292 4730 c-781 -82 -1448 -542 -1792 -1235 -165 -331 -234 -632
-233 -1005 1 -291 48 -539 149 -800 266 -681 844 -1186 1559 -1361 346 -85
746 -80 1095 12 489 130 921 421 1222 827 213 285 350 609 413 972 26 147 31
495 10 645 -23 169 -49 279 -101 435 -267 795 -964 1373 -1794 1490 -160 23
-412 32 -528 20z m1324 -792 c-33 -82 -32 -118 9 -162 14 -15 25 -29 25 -32 0
-10 -36 -2 -54 11 -44 34 -156 -1 -156 -47 0 -12 -3 -18 -7 -14 -14 14 -11 39
8 75 25 47 24 71 -6 115 -23 35 -31 56 -20 56 2 0 23 -10 45 -21 40 -21 42
-21 85 -4 25 9 47 21 50 26 9 14 27 11 21 -3z m74 -238 c0 -5 -4 -10 -10 -10
-5 0 -10 5 -10 10 0 6 5 10 10 10 6 0 10 -4 10 -10z m-280 -50 c0 -5 -4 -10
-10 -10 -5 0 -10 5 -10 10 0 6 5 10 10 10 6 0 10 -4 10 -10z m325 0 c3 -5 -1
-10 -10 -10 -9 0 -13 5 -10 10 3 6 8 10 10 10 2 0 7 -4 10 -10z m45 -50 c0 -5
-4 -10 -10 -10 -5 0 -10 5 -10 10 0 6 5 10 10 10 6 0 10 -4 10 -10z m-400 -10
c0 -5 -4 -10 -10 -10 -5 0 -10 5 -10 10 0 6 5 10 10 10 6 0 10 -4 10 -10z
m440 -40 c0 -5 -4 -10 -10 -10 -5 0 -10 5 -10 10 0 6 5 10 10 10 6 0 10 -4 10
-10z m-470 -20 c0 -5 -4 -10 -10 -10 -5 0 -10 5 -10 10 0 6 5 10 10 10 6 0 10
-4 10 -10z m515 -30 c3 -5 1 -10 -4 -10 -6 0 -11 5 -11 10 0 6 2 10 4 10 3 0
8 -4 11 -10z m-545 -30 c0 -5 -4 -10 -10 -10 -5 0 -10 5 -10 10 0 6 5 10 10
10 6 0 10 -4 10 -10z m590 -20 c0 -5 -4 -10 -10 -10 -5 0 -10 5 -10 10 0 6 5
10 10 10 6 0 10 -4 10 -10z m-620 -40 c0 -5 -4 -10 -10 -10 -5 0 -10 5 -10 10
0 6 5 10 10 10 6 0 10 -4 10 -10z m660 -10 c0 -5 -4 -10 -10 -10 -5 0 -10 5
-10 10 0 6 5 10 10 10 6 0 10 -4 10 -10z m-695 -39 c3 -5 1 -12 -5 -16 -5 -3
-10 1 -10 9 0 18 6 21 15 7z m740 -11 c3 -5 1 -10 -4 -10 -6 0 -11 5 -11 10 0
6 2 10 4 10 3 0 8 -4 11 -10z m-771 -61 c-3 -5 -10 -7 -15 -3 -5 3 -7 10 -3
15 3 5 10 7 15 3 5 -3 7 -10 3 -15z m836 -13 c45 -50 80 -62 135 -44 53 18 60
5 19 -33 -39 -36 -45 -61 -29 -116 8 -26 12 -49 10 -51 -3 -3 -23 12 -45 32
-37 33 -46 37 -83 32 -23 -3 -52 -8 -64 -12 -31 -9 -29 -3 12 40 40 42 45 82
20 143 -24 56 -18 58 25 9z m-865 -36 c3 -5 -1 -10 -10 -10 -9 0 -13 5 -10 10
3 6 8 10 10 10 2 0 7 -4 10 -10z m-30 -60 c3 -5 -1 -10 -10 -10 -9 0 -13 5
-10 10 3 6 8 10 10 10 2 0 7 -4 10 -10z m-35 -60 c0 -5 -4 -10 -10 -10 -5 0
-10 5 -10 10 0 6 5 10 10 10 6 0 10 -4 10 -10z m-30 -60 c0 -5 -4 -10 -10 -10
-5 0 -10 5 -10 10 0 6 5 10 10 10 6 0 10 -4 10 -10z m935 -10 c3 -5 1 -10 -4
-10 -6 0 -11 5 -11 10 0 6 2 10 4 10 3 0 8 -4 11 -10z m-965 -50 c0 -5 -4 -10
-10 -10 -5 0 -10 5 -10 10 0 6 5 10 10 10 6 0 10 -4 10 -10z m930 -4 c0 -3 -4
-8 -10 -11 -5 -3 -10 -1 -10 4 0 6 5 11 10 11 6 0 10 -2 10 -4z m-960 -56 c0
-5 -4 -10 -10 -10 -5 0 -10 5 -10 10 0 6 5 10 10 10 6 0 10 -4 10 -10z m920 0
c0 -5 -4 -10 -10 -10 -5 0 -10 5 -10 10 0 6 5 10 10 10 6 0 10 -4 10 -10z
m-950 -54 c0 -3 -4 -8 -10 -11 -5 -3 -10 -1 -10 4 0 6 5 11 10 11 6 0 10 -2
10 -4z m910 -6 c0 -5 -2 -10 -4 -10 -3 0 -8 5 -11 10 -3 6 -1 10 4 10 6 0 11
-4 11 -10z m-945 -49 c3 -5 1 -12 -5 -16 -5 -3 -10 1 -10 9 0 18 6 21 15 7z
m910 -1 c3 -5 1 -10 -4 -10 -6 0 -11 5 -11 10 0 6 2 10 4 10 3 0 8 -4 11 -10z
m-940 -60 c3 -5 1 -10 -4 -10 -6 0 -11 5 -11 10 0 6 2 10 4 10 3 0 8 -4 11
-10z m-80 -67 c15 -68 32 -90 84 -108 51 -17 60 -35 18 -35 -12 -1 -38 -9 -57
-18 -28 -13 -38 -27 -50 -64 -17 -55 -27 -60 -36 -20 -15 71 -20 77 -72 102
-28 14 -52 28 -52 32 0 3 19 9 42 13 51 9 84 41 93 89 9 43 22 47 30 9z m945
17 c0 -5 -4 -10 -10 -10 -5 0 -10 5 -10 10 0 6 5 10 10 10 6 0 10 -4 10 -10z
m-895 -10 c3 -5 1 -10 -4 -10 -6 0 -11 5 -11 10 0 6 2 10 4 10 3 0 8 -4 11
-10z m855 -40 c0 -5 -5 -10 -11 -10 -5 0 -7 5 -4 10 3 6 8 10 11 10 2 0 4 -4
4 -10z m-30 -54 c0 -3 -4 -8 -10 -11 -5 -3 -10 -1 -10 4 0 6 5 11 10 11 6 0
10 -2 10 -4z m-45 -56 c3 -5 1 -10 -4 -10 -6 0 -11 5 -11 10 0 6 2 10 4 10 3
0 8 -4 11 -10z m-965 -30 c0 -5 -4 -10 -10 -10 -5 0 -10 5 -10 10 0 6 5 10 10
10 6 0 10 -4 10 -10z m250 -10 c0 -5 -4 -10 -10 -10 -5 0 -10 5 -10 10 0 6 5
10 10 10 6 0 10 -4 10 -10z m680 -20 c0 -5 -4 -10 -10 -10 -5 0 -10 5 -10 10
0 6 5 10 10 10 6 0 10 -4 10 -10z m-990 -10 c0 -5 -4 -10 -10 -10 -5 0 -10 5
-10 10 0 6 5 10 10 10 6 0 10 -4 10 -10z m370 -4 c0 -3 -4 -8 -10 -11 -5 -3
-10 -1 -10 4 0 6 5 11 10 11 6 0 10 -2 10 -4z m-420 -30 c0 -3 -4 -8 -10 -11
-5 -3 -10 -1 -10 4 0 6 5 11 10 11 6 0 10 -2 10 -4z m470 -6 c0 -5 -5 -10 -11
-10 -5 0 -7 5 -4 10 3 6 8 10 11 10 2 0 4 -4 4 -10z m530 0 c0 -5 -5 -10 -11
-10 -5 0 -7 5 -4 10 3 6 8 10 11 10 2 0 4 -4 4 -10z m-1060 -30 c0 -5 -5 -10
-11 -10 -5 0 -7 5 -4 10 3 6 8 10 11 10 2 0 4 -4 4 -10z m590 -4 c0 -3 -4 -8
-10 -11 -5 -3 -10 -1 -10 4 0 6 5 11 10 11 6 0 10 -2 10 -4z m440 -20 c0 -3
-4 -8 -10 -11 -5 -3 -10 -1 -10 4 0 6 5 11 10 11 6 0 10 -2 10 -4z m-1080 -16
c0 -5 -4 -10 -10 -10 -5 0 -10 5 -10 10 0 6 5 10 10 10 6 0 10 -4 10 -10z
m-234 -79 c17 -20 29 -24 77 -24 31 0 57 -3 57 -7 0 -4 -16 -18 -35 -31 -43
-30 -59 -67 -51 -119 8 -50 -5 -51 -34 -5 -28 45 -47 55 -109 55 -28 0 -51 2
-51 5 0 9 40 45 50 45 20 0 42 50 40 92 -3 62 -1 66 18 38 9 -13 26 -35 38
-49z m1161 13 c-1 -43 2 -58 16 -68 9 -7 17 -18 17 -24 0 -6 15 -19 33 -29
l32 -18 -68 -5 c-58 -4 -71 -9 -87 -30 -53 -71 -49 -70 -50 -8 0 46 -5 62 -25
87 -14 16 -35 33 -45 36 -37 12 -22 28 20 21 55 -9 100 12 125 57 11 21 23 37
27 37 4 0 7 -25 5 -56z m-987 26 c0 -5 -4 -10 -10 -10 -5 0 -10 5 -10 10 0 6
5 10 10 10 6 0 10 -4 10 -10z m810 0 c0 -5 -2 -10 -4 -10 -3 0 -8 5 -11 10 -3
6 -1 10 4 10 6 0 11 -4 11 -10z m285 0 c3 -5 1 -10 -4 -10 -6 0 -11 5 -11 10
0 6 2 10 4 10 3 0 8 -4 11 -10z m-1150 -30 c3 -5 1 -10 -4 -10 -6 0 -11 5 -11
10 0 6 2 10 4 10 3 0 8 -4 11 -10z m920 0 c3 -5 1 -10 -4 -10 -6 0 -11 5 -11
10 0 6 2 10 4 10 3 0 8 -4 11 -10z m195 -30 c0 -5 -4 -10 -10 -10 -5 0 -10 5
-10 10 0 6 5 10 10 10 6 0 10 -4 10 -10z m-1400 -90 c0 -5 -4 -10 -10 -10 -5
0 -10 5 -10 10 0 6 5 10 10 10 6 0 10 -4 10 -10z m-65 -9 c3 -5 1 -12 -5 -16
-5 -3 -10 1 -10 9 0 18 6 21 15 7z m-65 -21 c0 -5 -4 -10 -10 -10 -5 0 -10 5
-10 10 0 6 5 10 10 10 6 0 10 -4 10 -10z m-388 -74 c5 -53 33 -92 74 -102 43
-11 29 -34 -22 -34 -59 0 -79 -12 -104 -60 -22 -44 -40 -52 -40 -19 0 12 -8
28 -17 35 -17 13 -17 13 0 14 38 0 10 53 -43 80 -22 11 -40 25 -40 30 0 6 21
10 48 10 58 0 83 16 107 70 22 49 32 42 37 -24z m328 54 c0 -5 -4 -10 -10 -10
-5 0 -10 5 -10 10 0 6 5 10 10 10 6 0 10 -4 10 -10z m-66 -21 c-3 -5 -10 -7
-15 -3 -5 3 -7 10 -3 15 3 5 10 7 15 3 5 -3 7 -10 3 -15z m-64 -9 c0 -5 -4
-10 -10 -10 -5 0 -10 5 -10 10 0 6 5 10 10 10 6 0 10 -4 10 -10z m-60 -14 c0
-11 -19 -15 -25 -6 -3 5 1 10 9 10 9 0 16 -2 16 -4z m-70 -22 c0 -8 -4 -12
-10 -9 -5 3 -10 10 -10 16 0 5 5 9 10 9 6 0 10 -7 10 -16z m-210 -214 c0 -5
-4 -10 -10 -10 -5 0 -10 5 -10 10 0 6 5 10 10 10 6 0 10 -4 10 -10z m-40 -50
c0 -5 -4 -10 -10 -10 -5 0 -10 5 -10 10 0 6 5 10 10 10 6 0 10 -4 10 -10z
m-40 -56 c0 -8 -4 -12 -10 -9 -5 3 -10 10 -10 16 0 5 5 9 10 9 6 0 10 -7 10
-16z m-40 -54 c0 -5 -4 -10 -10 -10 -5 0 -10 5 -10 10 0 6 5 10 10 10 6 0 10
-4 10 -10z m-40 -50 c0 -5 -4 -10 -10 -10 -5 0 -10 5 -10 10 0 6 5 10 10 10 6
0 10 -4 10 -10z m-40 -50 c0 -5 -4 -10 -10 -10 -5 0 -10 5 -10 10 0 6 5 10 10
10 6 0 10 -4 10 -10z m-40 -50 c0 -5 -4 -10 -10 -10 -5 0 -10 5 -10 10 0 6 5
10 10 10 6 0 10 -4 10 -10z m-46 -61 c-3 -5 -10 -7 -15 -3 -5 3 -7 10 -3 15 3
5 10 7 15 3 5 -3 7 -10 3 -15z m-34 -43 c0 -11 -19 -15 -25 -6 -3 5 1 10 9 10
9 0 16 -2 16 -4z m-50 -56 c0 -5 -4 -10 -10 -10 -5 0 -10 5 -10 10 0 6 5 10
10 10 6 0 10 -4 10 -10z m-40 -50 c0 -5 -4 -10 -10 -10 -5 0 -10 5 -10 10 0 6
5 10 10 10 6 0 10 -4 10 -10z m-171 -60 c37 -40 38 -40 99 -35 34 3 62 1 62
-3 0 -5 -14 -18 -31 -31 -40 -30 -51 -62 -40 -114 6 -23 8 -44 5 -46 -2 -3
-22 13 -44 34 -39 38 -39 38 -99 32 -34 -4 -61 -5 -61 -2 0 3 17 20 37 39 30
27 37 41 37 72 1 22 -2 51 -7 67 -10 36 -3 34 42 -13z m131 10 c0 -5 -4 -10
-10 -10 -5 0 -10 5 -10 10 0 6 5 10 10 10 6 0 10 -4 10 -10z"/>
<path d="M3540 3880 c-14 -4 -35 -5 -47 -3 -21 5 -22 3 -12 -26 6 -17 8 -38 5
-47 -5 -12 -2 -15 10 -10 8 3 28 6 43 6 25 0 27 3 26 45 0 25 0 45 0 44 0 -1
-11 -4 -25 -9z"/>
<path d="M4080 3190 c0 -12 -4 -30 -10 -40 -8 -15 -5 -19 18 -22 15 -3 35 -9
45 -13 14 -6 17 -2 17 20 0 14 4 34 9 44 7 13 5 17 -7 17 -9 0 -29 3 -44 7
-24 6 -28 4 -28 -13z"/>
<path d="M2840 2631 c0 -6 -12 -19 -27 -29 l-28 -17 33 -33 c17 -19 32 -29 32
-23 0 6 13 19 28 29 l29 17 -34 34 c-18 19 -33 29 -33 22z"/>
<path d="M2244 2256 c-3 -14 -12 -31 -20 -37 -12 -10 -7 -15 27 -30 50 -23 49
-23 49 -2 0 9 10 27 22 40 l21 23 -24 0 c-14 0 -34 7 -46 15 -21 15 -23 14
-29 -9z"/>
<path d="M3381 2269 c-13 -10 -31 -19 -41 -19 -16 0 -15 -4 4 -43 l21 -44 24
19 c13 10 30 18 38 18 13 0 13 3 0 23 -8 13 -17 33 -19 44 -3 21 -3 21 -27 2z"/>
<path d="M1546 2045 c-3 -8 -17 -17 -31 -21 -26 -6 -32 -18 -14 -29 5 -4 14
-17 19 -30 l9 -24 39 22 c38 21 39 21 21 41 -11 11 -19 25 -19 32 0 19 -17 26
-24 9z"/>
<path d="M858 1194 c-15 -43 -15 -44 6 -44 12 0 32 -7 44 -16 21 -15 22 -14
22 15 0 16 5 33 10 36 16 10 11 25 -8 25 -10 0 -27 6 -38 14 -19 13 -21 11
-36 -30z"/>
</g>
</svg>
